<svg xmlns="http://www.w3.org/2000/svg" width="1024" height="1024" viewBox="0 0 1024 1024">
<g>
<path d="M 671.50 736.00 C671.16,736.55 668.07,737.00 664.62,737.00 L 658.36 737.00 L 648.62 722.50 C639.24,708.53 638.75,708.00 635.44,708.00 L 632.00 708.00 L 632.00 719.37 C632.00,729.35 632.25,731.05 634.07,733.37 L 636.15 736.00 L 619.00 736.00 L 621.00 734.00 C622.90,732.10 623.00,730.67 623.00,706.54 C623.00,681.63 622.95,681.03 620.81,679.04 L 618.62 677.00 L 634.06 677.02 C647.05,677.04 650.16,677.34 653.67,678.94 C658.74,681.24 661.09,684.59 661.75,690.46 C662.43,696.54 658.75,702.91 653.06,705.47 C650.83,706.48 649.00,707.49 649.00,707.73 C649.00,707.96 652.18,712.82 656.07,718.53 C662.75,728.35 668.82,735.00 671.09,735.00 C671.66,735.00 671.84,735.45 671.50,736.00 ZM 606.46 736.07 C606.14,736.58 603.01,737.00 599.50,737.00 L 593.12 737.00 L 583.38 722.50 C574.11,708.70 573.48,708.00 570.32,708.00 L 567.00 708.00 L 567.00 719.69 C567.00,730.31 567.20,731.58 569.17,733.69 L 571.35 736.00 L 553.09 736.00 L 555.55 733.55 L 558.00 731.09 L 558.00 681.91 L 555.55 679.45 L 553.09 677.00 L 568.83 677.00 C583.17,677.00 584.97,677.20 589.04,679.25 C591.68,680.58 594.10,682.72 594.98,684.50 C597.19,689.00 596.92,696.29 594.41,699.68 C592.41,702.37 587.27,706.39 584.70,707.28 C583.96,707.53 585.96,711.31 589.90,717.10 C596.92,727.42 602.41,733.68 605.21,734.57 C606.21,734.88 606.77,735.56 606.46,736.07 ZM 201.07 733.37 L 203.15 736.00 L 186.00 736.00 L 188.00 734.00 C189.90,732.10 190.00,730.67 190.00,706.54 C190.00,681.63 189.95,681.03 187.81,679.04 L 185.62 677.00 L 200.10 677.00 C213.14,677.00 215.01,677.22 218.98,679.25 C225.55,682.61 227.50,685.87 227.50,693.50 C227.50,701.12 225.57,704.35 218.94,707.83 C215.08,709.85 213.49,710.09 206.75,709.67 L 199.00 709.19 L 199.00 719.96 C199.00,729.34 199.27,731.07 201.07,733.37 ZM 695.65 734.17 C697.24,735.93 697.04,736.00 690.60,736.00 L 683.89 736.00 L 686.47 733.75 C688.17,732.27 692.82,722.80 700.11,706.00 C706.20,691.97 711.63,679.26 712.19,677.75 C712.74,676.24 713.71,675.01 714.35,675.02 C714.98,675.02 720.87,687.72 727.43,703.23 C734.90,720.89 740.27,732.28 741.82,733.71 L 744.29 736.00 L 735.15 736.00 C726.09,736.00 726.02,735.98 727.95,734.05 C730.10,731.90 729.87,730.28 726.14,721.75 L 724.07 717.00 L 699.87 717.00 L 696.94 723.48 C693.53,731.00 693.44,731.72 695.65,734.17 ZM 843.00 709.81 C843.00,728.31 842.65,738.00 841.98,738.00 C841.42,738.00 832.37,727.20 821.88,714.00 C811.38,700.80 802.39,690.00 801.90,690.00 C801.40,690.00 801.00,699.03 801.00,710.37 C801.00,729.45 801.13,730.90 803.07,733.37 L 805.15 736.00 L 793.00 736.00 L 795.00 734.00 C796.89,732.11 797.00,730.67 797.00,707.93 C797.00,693.41 796.59,683.11 795.97,681.95 C795.41,680.90 793.72,679.37 792.22,678.56 C789.59,677.13 789.72,677.08 796.20,677.04 L 802.90 677.00 L 820.00 698.00 C829.41,709.55 837.53,719.00 838.05,719.00 C839.17,719.00 839.34,682.05 838.23,680.41 C837.83,679.82 836.60,678.82 835.50,678.19 C833.86,677.26 834.74,677.06 840.42,677.03 L 847.35 677.00 L 845.17 679.31 C843.05,681.58 843.00,682.25 843.00,709.81 ZM 291.06 730.25 L 288.84 737.00 L 267.42 737.00 C255.64,737.00 246.00,736.80 246.00,736.55 C246.00,736.30 247.12,734.97 248.50,733.59 L 251.00 731.09 L 251.00 681.91 L 248.55 679.45 L 246.09 677.00 L 289.00 677.00 L 289.00 682.50 C289.00,688.68 288.13,689.44 286.15,684.98 C284.08,680.31 280.46,679.00 269.55,679.00 L 260.00 679.00 L 260.00 703.00 L 267.43 703.00 C276.67,703.00 279.85,701.85 281.31,697.99 C283.25,692.85 284.00,694.66 284.00,704.50 C284.00,714.28 283.13,716.42 281.46,710.76 C280.16,706.38 276.95,705.03 267.75,705.01 L 260.00 705.00 L 260.00 718.35 C260.00,735.35 260.13,735.52 272.43,734.76 C282.66,734.12 286.64,732.03 290.11,725.51 C291.42,723.03 292.88,721.00 293.36,721.00 C293.83,721.00 294.01,721.56 293.75,722.25 C293.50,722.94 292.29,726.54 291.06,730.25 ZM 534.19 729.00 L 531.50 736.50 L 510.25 736.77 C498.56,736.92 489.00,736.77 489.00,736.43 C489.00,736.09 490.01,735.00 491.25,734.00 C493.48,732.19 493.50,731.92 493.50,706.53 L 493.50 680.89 L 491.00 678.97 C488.51,677.05 488.59,677.04 509.69,677.02 L 530.88 677.00 L 531.56 681.58 C532.46,687.55 530.98,688.97 528.56,684.47 C526.14,679.99 522.12,678.78 511.00,679.19 L 502.50 679.50 L 502.50 702.50 L 509.93 702.80 C518.86,703.15 522.76,701.77 524.58,697.58 C525.81,694.75 525.92,695.30 525.86,704.50 C525.80,713.13 525.65,714.04 524.72,711.12 C523.24,706.51 518.97,704.83 509.68,705.21 L 502.50 705.50 L 502.22 718.22 C501.87,733.94 502.50,735.00 512.06,735.00 C524.19,735.00 531.33,731.08 534.20,722.84 C534.75,721.28 535.60,720.00 536.10,720.00 C537.34,720.00 537.24,720.48 534.19,729.00 ZM 332.17 733.69 L 334.35 736.00 L 316.09 736.00 L 318.55 733.55 L 321.00 731.09 L 321.00 678.77 L 314.37 679.19 C308.42,679.57 307.44,679.94 304.87,682.82 C303.29,684.59 302.00,686.92 302.00,688.02 C302.00,689.11 301.55,690.00 301.00,690.00 C299.87,690.00 299.73,686.30 300.64,680.75 L 301.26 677.00 L 349.83 677.00 L 350.16 683.50 C350.35,687.08 350.25,690.00 349.95,690.00 C349.65,690.00 348.82,688.39 348.11,686.43 C346.36,681.59 341.89,679.01 335.25,679.00 L 330.00 679.00 L 330.00 705.19 C330.00,730.69 330.06,731.43 332.17,733.69 ZM 451.07 733.37 L 453.15 736.00 L 436.00 736.00 L 438.00 734.00 C439.90,732.10 440.00,730.67 440.00,705.50 L 440.00 679.00 L 434.95 679.00 C428.49,679.00 424.54,681.08 422.06,685.77 L 420.09 689.50 L 420.00 677.00 L 468.74 677.00 L 469.36 680.75 C470.27,686.30 470.13,690.00 469.00,690.00 C468.45,690.00 468.00,689.11 468.00,688.02 C468.00,686.92 466.71,684.59 465.13,682.82 C462.56,679.94 461.58,679.57 455.63,679.19 L 449.00 678.77 L 449.00 704.75 C449.00,729.52 449.10,730.85 451.07,733.37 ZM 772.17 733.69 L 774.35 736.00 L 756.85 736.00 L 758.93 733.37 C760.90,730.86 761.00,729.50 761.00,706.32 L 761.00 681.91 L 758.55 679.45 L 756.09 677.00 L 774.15 677.00 L 772.07 679.63 C770.10,682.14 770.00,683.50 770.00,706.82 C770.00,730.65 770.06,731.44 772.17,733.69 ZM 632.67 705.33 C633.96,706.63 640.56,705.93 644.68,704.06 C649.60,701.83 652.00,697.87 652.00,692.00 C652.00,682.27 644.34,676.93 634.25,679.63 C632.07,680.21 632.00,680.63 632.00,692.45 C632.00,699.17 632.30,704.97 632.67,705.33 ZM 567.75 705.43 C568.92,706.63 577.73,705.27 580.88,703.41 C589.06,698.58 589.02,684.91 580.81,680.35 C578.34,678.98 572.93,678.64 569.25,679.63 C567.07,680.21 567.00,680.63 567.00,692.45 C567.00,699.17 567.34,705.01 567.75,705.43 ZM 200.75 705.92 C201.71,706.48 204.38,706.95 206.67,706.97 C218.03,707.05 222.73,691.57 214.00,682.84 C211.50,680.34 210.42,680.00 205.08,680.00 L 199.00 680.00 L 199.00 692.45 C199.00,703.25 199.23,705.04 200.75,705.92 ZM 702.00 712.52 C702.00,713.72 703.77,714.00 711.44,714.00 C716.63,714.00 721.11,713.63 721.39,713.18 C722.02,712.16 713.01,690.00 711.97,690.00 C711.05,690.00 702.00,710.45 702.00,712.52 ZM 512.82 798.25 C510.79,802.23 509.26,799.82 505.82,787.25 C503.88,780.16 502.75,774.33 503.28,774.13 C504.82,773.53 505.81,775.95 508.05,785.75 C509.21,790.84 510.52,795.00 510.95,795.00 C511.38,795.00 513.09,790.39 514.74,784.75 C518.79,770.92 519.95,770.88 523.64,784.45 C525.21,790.25 526.79,794.99 527.14,795.00 C527.69,795.00 530.27,786.31 532.56,776.75 C532.92,775.24 533.84,774.00 534.61,774.00 C535.37,774.00 536.00,774.14 536.00,774.31 C536.00,775.35 529.03,799.30 528.61,799.73 C527.21,801.12 525.16,798.68 524.08,794.34 C521.72,784.83 519.85,779.00 519.16,779.00 C518.78,779.00 517.39,782.94 516.09,787.75 C514.78,792.56 513.31,797.29 512.82,798.25 ZM 373.21 787.99 C372.78,803.75 371.00,803.06 371.00,787.13 C371.00,774.08 371.04,773.87 373.17,774.18 C374.97,774.45 375.97,776.37 379.01,785.50 L 382.67 796.50 L 386.42 785.25 C389.83,775.00 390.38,774.00 392.61,774.00 L 395.06 774.00 L 394.78 786.67 C394.58,795.71 394.14,799.46 393.25,799.75 C392.31,800.07 392.00,797.70 392.00,790.08 C392.00,784.54 391.64,780.00 391.21,780.00 C390.77,780.00 389.05,784.39 387.38,789.75 C385.44,795.95 383.83,799.50 382.95,799.50 C382.09,799.50 380.25,795.83 378.18,790.00 C376.33,784.78 374.52,779.83 374.16,779.00 C373.80,778.17 373.37,782.22 373.21,787.99 ZM 413.63 795.96 C412.16,799.64 410.00,801.45 410.00,799.00 C410.00,798.46 412.10,792.61 414.66,786.00 C420.13,771.92 421.68,770.89 424.83,779.25 C425.92,782.14 427.98,787.59 429.40,791.37 C432.31,799.06 432.53,800.34 430.82,799.77 C430.17,799.56 429.12,797.83 428.48,795.94 C427.36,792.58 427.19,792.49 421.29,792.21 L 415.25 791.91 ZM 277.46 795.43 C276.68,797.32 275.57,799.15 275.02,799.49 C273.10,800.67 274.12,796.49 278.41,785.50 C283.70,771.96 285.41,770.99 288.63,779.72 C289.80,782.90 291.91,788.53 293.32,792.22 C294.90,796.34 295.51,799.19 294.90,799.56 C294.35,799.90 293.19,798.34 292.30,796.09 L 290.70 792.00 L 284.80 792.00 C279.02,792.00 278.87,792.07 277.46,795.43 ZM 313.09 794.25 C313.04,797.41 312.55,800.00 312.00,800.00 C311.38,800.00 311.00,795.00 311.00,787.00 C311.00,774.86 311.13,774.00 312.91,774.00 C314.25,774.00 316.84,777.15 321.52,784.50 C325.20,790.28 328.62,795.00 329.11,795.00 C329.60,795.00 330.00,790.28 330.00,784.50 C330.00,777.96 330.39,774.00 331.03,774.00 C332.56,774.00 331.86,799.22 330.31,799.73 C329.66,799.95 325.94,795.37 322.04,789.56 C318.14,783.75 314.48,779.00 313.90,779.00 C313.29,779.00 312.92,780.99 313.01,783.75 C313.10,786.36 313.14,791.09 313.09,794.25 ZM 640.00 789.50 C640.00,795.83 639.60,800.00 639.00,800.00 C638.38,800.00 638.00,795.00 638.00,787.00 C638.00,770.21 638.86,770.01 648.38,784.52 C652.17,790.28 655.66,795.00 656.13,795.00 C656.61,795.00 657.00,790.28 657.00,784.50 C657.00,777.96 657.39,774.00 658.03,774.00 C658.70,774.00 658.96,778.49 658.78,786.75 C658.55,797.29 658.24,799.50 657.00,799.50 C656.17,799.50 652.46,794.89 648.75,789.25 C645.04,783.61 641.56,779.00 641.00,779.00 C640.40,779.00 640.00,783.13 640.00,789.50 ZM 719.93 797.37 C718.27,799.47 717.00,800.00 713.62,800.00 C709.51,800.00 705.00,797.36 705.00,794.96 C705.00,793.40 706.56,793.86 708.50,796.00 C710.63,798.36 716.18,798.69 717.95,796.56 C718.61,795.77 719.00,793.87 718.82,792.34 C718.55,790.00 717.69,789.26 713.50,787.74 C705.47,784.83 702.87,780.13 707.00,776.00 C709.66,773.34 717.00,773.24 719.35,775.83 C721.37,778.06 721.44,779.00 719.61,779.00 C718.84,779.00 717.95,778.33 717.64,777.50 C716.89,775.55 710.65,775.51 709.04,777.45 C706.91,780.02 708.36,782.43 713.60,785.00 C716.41,786.38 719.45,788.12 720.35,788.87 C722.60,790.74 722.42,794.19 719.93,797.37 ZM 749.78 798.44 C748.56,799.30 745.96,800.00 744.00,800.00 C740.07,800.00 736.00,797.68 736.00,795.44 C736.00,793.41 737.37,793.65 739.54,796.05 C742.35,799.15 748.15,798.41 749.41,794.78 C750.63,791.30 748.52,788.77 743.02,787.12 C738.72,785.84 736.00,782.82 736.00,779.33 C736.00,774.21 746.00,772.00 750.19,776.19 C752.85,778.85 750.86,780.09 748.04,777.53 C746.87,776.48 744.94,775.98 742.84,776.18 C740.22,776.43 739.43,777.00 739.17,778.83 C738.77,781.69 741.24,784.60 744.82,785.48 C750.10,786.78 752.00,788.75 752.00,792.97 C752.00,795.88 751.43,797.28 749.78,798.44 ZM 564.50 799.00 C564.16,799.55 560.98,800.00 557.44,800.00 L 551.00 800.00 L 551.00 774.00 L 557.50 774.00 C561.17,774.00 564.00,774.44 564.00,775.00 C564.00,775.55 561.73,776.00 558.95,776.00 L 553.89 776.00 L 554.20 780.75 L 554.50 785.50 L 558.77 785.81 C564.05,786.19 563.36,788.00 557.94,788.00 L 554.00 788.00 L 554.00 798.00 L 559.56 798.00 C563.01,798.00 564.88,798.38 564.50,799.00 ZM 690.50 799.00 C690.16,799.55 686.98,800.00 683.44,800.00 L 677.00 800.00 L 677.00 774.00 L 683.50 774.00 C687.17,774.00 690.00,774.44 690.00,775.00 C690.00,775.55 687.75,776.00 685.00,776.00 L 680.00 776.00 L 680.00 786.00 L 684.56 786.00 C687.34,786.00 688.88,786.39 688.50,787.00 C688.16,787.55 686.11,788.00 683.94,788.00 L 680.00 788.00 L 680.00 798.00 L 685.56 798.00 C689.01,798.00 690.88,798.38 690.50,799.00 ZM 594.00 799.00 C594.00,799.56 591.17,800.00 587.50,800.00 L 581.00 800.00 L 581.00 787.00 C581.00,776.11 581.24,774.00 582.50,774.00 C583.75,774.00 584.00,776.00 584.00,786.00 L 584.00 798.00 L 589.00 798.00 C591.75,798.00 594.00,798.45 594.00,799.00 ZM 460.47 799.05 C460.15,799.57 457.21,800.00 453.94,800.00 L 448.00 800.00 L 448.00 787.00 C448.00,770.52 449.83,769.49 450.22,785.75 L 450.50 797.50 L 455.78 797.80 C458.77,797.98 460.80,798.52 460.47,799.05 ZM 416.74 789.41 C417.64,790.30 424.81,790.12 425.39,789.19 C425.94,788.29 421.84,777.04 420.95,777.02 C420.08,776.99 416.08,788.75 416.74,789.41 ZM 280.38 787.63 C279.81,789.87 280.03,790.00 284.52,790.00 C289.15,790.00 289.24,789.94 288.69,787.25 C288.38,785.74 287.36,782.70 286.43,780.50 L 284.73 776.50 L 282.85 780.88 C281.82,783.28 280.71,786.32 280.38,787.63 ZM 352.78 786.67 C352.58,795.71 352.14,799.46 351.25,799.75 C350.29,800.07 350.00,797.10 350.00,787.08 C350.00,776.01 350.23,774.00 351.53,774.00 C352.84,774.00 353.02,775.84 352.78,786.67 Z" fill="rgb(5,4,4)"/>
<path d="M 549.32 640.13 C545.80,642.31 544.25,642.53 529.81,642.85 L 514.12 643.21 L 511.56 640.65 C508.72,637.82 508.45,635.94 510.14,630.90 C512.31,624.42 518.09,620.00 524.39,620.00 C530.26,620.00 533.05,616.68 534.10,608.46 C535.72,595.66 536.37,540.26 535.07,524.84 C533.52,506.28 529.73,487.18 526.04,479.29 L 523.15 473.09 L 494.32 458.94 C446.69,435.56 434.27,430.51 421.51,429.32 C415.11,428.72 413.65,429.17 403.00,434.96 C398.87,437.21 396.17,437.96 392.15,437.98 C387.41,438.00 386.42,437.62 383.48,434.68 C376.33,427.53 378.07,417.05 387.98,407.60 C396.29,399.67 401.32,397.60 412.00,397.72 C419.59,397.80 422.97,398.58 443.50,404.95 C467.70,412.47 490.84,418.55 497.52,419.15 L 501.50 419.50 L 502.75 411.50 C503.44,407.10 505.19,396.52 506.64,388.00 C508.54,376.86 509.41,367.54 509.75,354.86 C510.52,325.75 507.89,317.00 498.37,317.00 C495.90,317.00 492.18,317.89 490.01,318.99 C487.86,320.09 479.33,327.48 471.05,335.42 C454.38,351.40 449.01,354.83 439.20,355.72 C434.78,356.12 431.40,355.69 425.89,354.05 C410.51,349.46 407.00,347.48 407.00,343.40 C407.00,342.14 410.16,334.90 414.03,327.30 C425.48,304.84 426.86,297.74 422.87,281.97 C420.19,271.37 420.71,263.74 424.93,251.83 C426.62,247.06 428.00,242.49 428.00,241.66 C428.00,240.58 425.28,239.56 418.25,238.00 C390.53,231.83 389.67,230.86 405.39,223.45 C420.80,216.18 435.82,211.96 455.00,209.49 C482.08,206.01 511.62,209.11 530.35,217.39 C550.00,226.08 568.19,243.94 585.98,272.00 C610.80,311.15 618.08,320.36 644.41,346.00 C693.40,393.68 713.81,415.43 732.64,440.00 C757.11,471.93 774.05,505.57 783.94,541.91 C786.79,552.35 788.73,565.16 790.02,582.00 C790.63,589.97 791.79,598.86 792.59,601.74 C794.62,609.03 796.86,610.31 806.79,609.86 C813.43,609.55 815.78,608.92 822.38,605.66 C838.87,597.51 851.54,580.07 855.55,560.00 C857.84,548.55 857.10,528.08 853.96,516.00 C849.38,498.38 840.61,481.53 829.03,468.11 C821.83,459.76 821.11,458.29 823.20,456.20 C826.75,452.65 838.08,458.69 850.19,470.59 C863.03,483.22 872.18,498.58 878.51,518.17 C885.31,539.19 886.70,557.30 882.96,575.96 C878.99,595.76 873.09,607.14 860.10,620.04 C850.80,629.28 844.16,633.60 834.00,637.02 C819.06,642.06 818.40,642.09 708.76,642.68 C701.59,642.72 694.90,642.76 688.66,642.80 C613.41,643.22 602.42,643.29 601.07,639.71 C600.84,639.10 600.89,638.38 600.95,637.54 C600.98,637.13 601.01,636.69 601.02,636.23 C601.04,630.49 604.68,625.04 610.47,622.06 C615.04,619.71 616.82,619.45 632.47,618.89 C641.84,618.55 649.61,618.21 649.75,618.14 C649.89,618.06 650.00,617.17 650.00,616.16 C650.00,615.04 646.77,611.82 641.75,607.93 C629.81,598.68 618.25,587.37 613.90,580.69 C610.04,574.76 607.12,566.89 605.07,556.89 C602.92,546.39 598.11,538.36 587.93,528.25 C582.81,523.16 578.34,519.00 577.99,519.00 C577.40,519.00 575.08,530.85 572.96,544.75 C570.98,557.68 570.05,563.81 568.47,574.50 C560.98,624.97 558.17,634.63 549.32,640.13 ZM 344.50 339.00 C345.97,339.63 345.13,339.88 341.31,339.93 C338.45,339.97 335.84,339.55 335.50,339.00 C334.74,337.77 341.65,337.77 344.50,339.00 Z" fill="rgb(20,95,138)"/>
<path d="M 363.72 641.03 C357.50,644.82 344.63,642.89 338.79,637.30 C335.59,634.23 330.08,625.18 324.00,613.00 C316.12,597.20 309.04,586.00 306.95,586.00 C306.57,586.00 305.95,588.76 305.56,592.14 C304.40,602.46 301.53,608.43 293.90,616.47 C290.12,620.45 287.33,624.00 287.70,624.37 C288.07,624.74 292.30,624.75 297.10,624.38 C304.95,623.79 306.17,623.94 309.31,625.88 C316.16,630.11 318.28,637.46 313.55,640.56 C311.35,642.00 305.55,642.12 258.30,641.76 C208.38,641.37 205.08,641.24 197.85,639.24 C188.21,636.59 181.10,633.02 173.68,627.12 C166.82,621.66 156.83,608.89 153.30,601.06 C142.23,576.49 142.61,544.09 154.27,517.11 C159.83,504.25 163.86,498.15 172.52,489.43 C182.93,478.96 192.23,474.00 201.45,474.00 C208.60,474.00 212.00,476.21 212.00,480.85 C212.00,484.11 208.77,487.39 201.50,491.51 C190.13,497.96 176.88,513.73 171.14,527.67 C166.48,538.96 165.50,544.43 165.52,559.00 C165.54,579.57 170.46,593.90 181.63,605.97 C190.34,615.37 203.45,620.51 210.85,617.42 C213.85,616.17 214.16,615.69 213.57,613.25 C212.16,607.40 211.33,587.06 212.14,578.06 C213.24,565.78 216.06,555.64 221.46,544.50 C230.60,525.65 240.92,515.70 262.41,505.00 C278.90,496.79 280.00,495.42 279.99,483.10 C279.98,468.02 277.82,457.50 273.10,449.50 C265.59,436.79 260.59,421.41 263.01,418.49 C264.59,416.59 271.67,416.59 275.00,418.50 C279.15,420.87 279.80,420.42 279.25,415.51 C278.62,409.89 280.05,408.00 284.93,408.00 C288.78,408.00 295.85,411.83 299.40,415.85 C301.80,418.55 304.47,418.56 310.49,415.90 C314.30,414.21 316.76,413.87 322.94,414.15 C329.91,414.47 331.14,414.85 336.07,418.25 C340.90,421.58 342.21,422.00 347.60,422.00 C354.39,422.00 355.83,422.96 358.46,429.25 C361.56,436.68 359.38,444.75 351.44,455.19 C348.79,458.66 345.32,463.98 343.71,467.00 C340.96,472.17 340.82,473.00 341.34,481.00 C341.89,489.65 345.90,504.27 348.42,506.83 C349.51,507.94 350.65,507.09 355.10,501.83 C366.58,488.28 379.37,476.43 386.08,473.13 C394.97,468.75 398.77,468.25 402.25,470.98 C404.24,472.55 405.00,474.04 405.00,476.39 C405.00,480.31 401.75,483.66 394.38,487.34 C391.56,488.75 388.13,491.24 386.75,492.88 C385.37,494.53 380.31,503.44 375.51,512.68 C362.72,537.35 353.41,550.68 345.09,556.29 C343.31,557.49 342.33,559.57 341.36,564.21 C338.26,578.98 340.63,593.27 349.74,614.74 C352.96,622.34 353.51,623.06 356.87,623.97 C367.37,626.81 371.24,636.44 363.72,641.03 ZM 318.25 398.68 C316.23,402.49 314.00,405.02 314.00,403.51 C314.00,403.17 314.75,401.46 315.67,399.70 C317.98,395.27 317.71,383.57 315.07,373.50 C313.91,369.10 312.69,362.58 312.36,359.00 C311.85,353.55 311.24,351.97 308.65,349.22 C303.16,343.41 291.65,336.25 280.94,331.98 C280.25,331.70 279.59,331.44 278.96,331.19 C269.45,327.40 265.89,325.98 266.01,325.43 C266.10,325.07 267.83,325.09 270.54,325.06 C280.59,324.96 291.24,328.53 301.25,335.38 L 305.00 337.94 L 305.00 335.58 C305.00,334.29 303.54,331.04 301.75,328.36 C299.24,324.61 297.02,322.77 291.99,320.28 C280.97,314.83 267.77,313.94 253.77,317.71 C245.24,320.01 244.95,320.77 249.34,329.65 C254.16,339.37 260.58,346.17 268.74,350.19 C274.41,352.98 276.17,353.36 283.34,353.33 C291.38,353.30 291.45,353.32 288.02,354.75 C285.69,355.72 282.07,356.07 277.02,355.82 C262.50,355.10 251.83,347.40 244.17,332.10 C241.88,327.52 240.00,322.96 240.00,321.96 C240.00,318.76 244.85,314.22 250.28,312.32 C254.34,310.90 258.49,310.50 269.00,310.52 C280.64,310.53 283.27,310.84 288.08,312.77 C298.82,317.09 306.97,327.13 306.99,336.08 C307.00,338.55 307.74,340.35 309.41,341.91 L 311.81 344.17 L 312.44 341.84 C312.79,340.55 313.56,337.70 314.16,335.50 C318.11,321.04 332.19,302.32 348.16,290.29 C367.62,275.62 368.20,276.53 350.65,294.20 C330.52,314.46 323.20,325.05 319.36,339.49 C317.70,345.73 317.61,361.16 319.19,368.20 C319.85,371.12 320.41,378.23 320.43,384.00 C320.47,392.99 320.16,395.10 318.25,398.68 ZM 344.50 339.00 C343.27,338.47 341.29,338.17 339.50,338.10 C340.49,337.99 341.62,337.91 342.83,337.86 C349.62,337.55 351.77,336.94 359.18,333.27 C381.61,322.16 392.99,298.31 393.00,262.42 C393.00,255.22 392.75,249.08 392.44,248.78 C392.14,248.47 388.87,249.93 385.19,252.03 C379.01,255.56 375.59,256.80 355.21,262.94 C337.04,268.42 321.36,279.43 315.63,290.74 C309.99,301.88 308.72,315.61 312.50,324.65 C314.82,330.21 313.34,330.00 310.76,324.40 C308.83,320.21 308.50,317.83 308.50,308.00 C308.50,296.83 308.60,296.29 312.13,289.00 C314.12,284.88 317.40,279.61 319.41,277.31 C327.00,268.59 343.64,259.75 361.34,255.03 C374.85,251.43 380.43,248.74 393.56,239.52 C394.54,238.83 395.44,239.01 396.56,240.13 C397.80,241.37 398.28,244.73 398.71,255.11 C400.60,300.73 382.87,331.83 351.12,338.56 C349.05,339.00 347.02,339.34 345.13,339.57 C345.29,339.43 345.07,339.24 344.50,339.00 ZM 207.50 736.00 C207.90,736.65 203.32,737.00 194.50,737.00 C185.68,737.00 181.10,736.65 181.50,736.00 C181.84,735.45 183.43,735.00 185.02,735.00 C186.01,735.00 186.88,734.80 187.57,734.43 L 186.00 736.00 L 203.15 736.00 L 201.77 734.25 C202.50,734.78 203.40,735.00 204.50,735.00 C205.81,735.00 207.16,735.45 207.50,736.00 ZM 640.50 736.00 C640.90,736.65 636.32,737.00 627.50,737.00 C618.68,737.00 614.10,736.65 614.50,736.00 C614.84,735.45 616.43,735.00 618.02,735.00 C619.01,735.00 619.88,734.80 620.57,734.43 L 619.00 736.00 L 636.15 736.00 L 634.80 734.28 C635.52,734.79 636.41,735.00 637.50,735.00 C638.81,735.00 640.16,735.45 640.50,736.00 ZM 457.50 736.00 C457.90,736.65 453.32,737.00 444.50,737.00 C435.68,737.00 431.10,736.65 431.50,736.00 C431.84,735.45 433.43,735.00 435.02,735.00 C436.01,735.00 436.88,734.80 437.57,734.43 L 436.00 736.00 L 453.15 736.00 L 452.02 734.57 C452.69,734.92 453.51,735.00 454.50,735.00 C455.81,735.00 457.16,735.45 457.50,736.00 ZM 772.17 733.69 C772.11,733.61 772.04,733.54 771.98,733.48 C773.01,734.33 774.69,735.00 775.83,735.00 C777.02,735.00 778.00,735.45 778.00,736.00 C778.00,736.62 772.98,737.00 764.94,737.00 C756.49,737.00 752.10,736.65 752.50,736.00 C752.84,735.45 754.19,735.00 755.50,735.00 C756.50,735.00 757.32,734.91 757.99,734.56 L 756.85 736.00 L 774.35 736.00 ZM 773.00 678.45 L 774.15 677.00 L 756.09 677.00 L 757.33 678.24 C756.67,678.05 755.88,678.00 754.94,678.00 C753.32,678.00 752.00,677.55 752.00,677.00 C752.00,676.38 757.00,676.00 765.00,676.00 C773.00,676.00 778.00,676.38 778.00,677.00 C778.00,677.55 776.90,678.00 775.56,678.00 C774.53,678.00 773.69,678.09 773.00,678.45 ZM 575.00 736.00 C575.00,736.62 569.98,737.00 561.94,737.00 C553.49,737.00 549.10,736.65 549.50,736.00 C549.84,735.45 551.19,735.00 552.50,735.00 C553.16,735.00 553.75,734.96 554.26,734.83 L 553.09 736.00 L 571.35 736.00 L 569.17 733.69 C569.11,733.62 569.05,733.55 568.98,733.48 C570.01,734.33 571.69,735.00 572.83,735.00 C574.02,735.00 575.00,735.45 575.00,736.00 ZM 332.17 733.69 C332.11,733.61 332.04,733.54 331.98,733.48 C333.01,734.33 334.69,735.00 335.83,735.00 C337.02,735.00 338.00,735.45 338.00,736.00 C338.00,736.62 332.98,737.00 324.94,737.00 C316.49,737.00 312.10,736.65 312.50,736.00 C312.84,735.45 314.19,735.00 315.50,735.00 C316.16,735.00 316.74,734.96 317.25,734.84 L 316.09 736.00 L 334.35 736.00 ZM 727.26 734.78 C726.22,735.99 727.39,736.00 735.15,736.00 L 744.29 736.00 L 741.82 733.71 C741.74,733.63 741.65,733.53 741.54,733.39 C742.35,734.21 743.07,734.46 743.94,734.64 C750.47,735.94 746.47,737.00 735.00,737.00 C727.67,737.00 723.00,736.61 723.00,736.00 C723.00,735.45 724.10,735.00 725.45,735.00 C726.15,735.00 726.75,734.93 727.26,734.78 ZM 845.05 679.45 C845.09,679.41 845.13,679.36 845.17,679.31 L 847.35 677.00 L 840.42 677.03 C834.83,677.05 833.89,677.26 835.42,678.15 C834.87,678.03 834.23,678.00 833.49,678.00 C832.18,678.00 830.84,677.55 830.50,677.00 C830.10,676.36 833.66,676.00 840.44,676.00 C846.81,676.00 851.00,676.40 851.00,677.00 C851.00,677.55 849.94,678.00 848.65,678.00 C847.53,678.00 846.02,678.63 845.05,679.45 ZM 794.57 734.43 L 793.00 736.00 L 805.15 736.00 L 803.96 734.50 C804.66,734.88 805.51,735.00 806.56,735.00 C807.90,735.00 809.00,735.45 809.00,736.00 C809.00,736.60 804.81,737.00 798.44,737.00 C791.66,737.00 788.10,736.64 788.50,736.00 C788.84,735.45 790.43,735.00 792.02,735.00 C793.01,735.00 793.88,734.80 794.57,734.43 ZM 695.65 734.17 C695.52,734.03 695.40,733.89 695.29,733.75 C695.94,734.32 696.96,734.65 698.35,734.82 C699.81,734.99 701.00,735.55 701.00,736.07 C701.00,736.58 696.72,737.00 691.50,737.00 C685.83,737.00 682.00,736.60 682.00,736.00 C682.00,735.45 682.83,735.00 683.85,735.00 C684.37,735.00 685.05,734.77 685.72,734.40 L 683.89 736.00 L 690.60 736.00 C697.04,736.00 697.24,735.93 695.65,734.17 ZM 531.26 679.55 L 531.38 680.12 C532.32,684.85 532.12,690.00 531.00,690.00 C530.45,690.00 530.00,689.28 530.00,688.40 C530.00,687.60 529.79,686.75 529.42,685.89 C531.31,688.54 532.35,686.80 531.56,681.58 ZM 319.62 732.47 C320.85,729.15 321.00,721.62 321.00,704.66 L 321.00 731.09 ZM 699.65 717.50 L 699.87 717.00 L 721.35 717.00 L 711.81 717.22 ZM 556.63 732.46 C557.84,729.24 558.00,722.05 558.00,706.23 L 558.00 731.09 ZM 759.61 680.52 L 761.00 681.91 L 761.00 706.32 C761.00,690.72 760.87,683.68 759.61,680.52 ZM 189.24 731.91 C189.71,728.65 189.99,719.34 190.00,706.54 C190.00,723.69 189.95,729.38 189.24,731.91 ZM 797.00 710.47 C796.99,724.71 796.91,729.65 796.23,731.97 C796.70,728.80 796.95,719.91 797.00,710.47 ZM 450.27 732.17 C449.07,729.86 449.00,725.63 449.00,704.75 C449.00,721.16 449.14,728.72 450.27,732.17 ZM 771.27 680.83 C770.15,684.19 770.00,691.42 770.00,706.82 C770.00,687.20 770.07,683.12 771.27,680.83 ZM 759.74 732.15 C760.84,728.83 761.00,721.72 761.00,706.72 C761.00,725.84 760.92,729.88 759.74,732.15 ZM 690.56 726.90 C693.23,721.24 697.21,712.49 701.05,703.84 C700.74,704.56 700.43,705.28 700.11,706.00 C696.12,715.20 692.92,722.20 690.56,726.90 ZM 802.24 732.13 C801.09,729.92 801.00,726.27 801.00,710.37 C801.00,722.80 801.19,729.05 802.24,732.13 ZM 694.68 732.96 C693.58,731.24 694.14,729.64 696.94,723.48 L 697.17 722.96 L 696.58 724.31 C694.62,728.76 693.95,731.41 694.68,732.96 ZM 837.52 679.65 C837.84,679.93 838.09,680.20 838.23,680.41 C838.53,680.85 838.73,683.79 838.85,687.87 C838.68,683.47 838.31,681.01 837.52,679.65 ZM 723.41 693.88 C718.62,682.93 714.85,675.02 714.35,675.02 C714.04,675.01 713.64,675.31 713.25,675.79 C713.64,675.31 714.03,675.01 714.35,675.01 C714.94,675.02 718.90,683.31 723.41,693.88 ZM 633.25 732.16 C632.17,730.20 632.00,727.60 632.00,719.37 C632.00,725.85 632.32,729.84 633.25,732.16 ZM 729.22 732.04 C729.31,729.99 728.31,726.74 726.22,721.93 C728.76,727.76 729.64,730.31 729.22,732.04 ZM 843.00 709.81 C843.00,689.46 843.03,683.77 843.90,681.27 C843.12,683.87 843.00,690.21 843.00,709.81 ZM 335.55 339.06 C336.00,339.54 338.19,339.91 340.70,339.93 C337.91,340.02 335.97,339.75 335.57,339.11 C335.56,339.09 335.55,339.08 335.55,339.06 ZM 521.13 679.55 C518.58,679.21 514.57,679.06 511.00,679.19 C515.36,679.03 518.62,679.11 521.13,679.55 ZM 527.98 683.51 C527.06,682.34 525.90,681.31 524.66,680.61 C526.08,681.30 527.13,682.25 527.98,683.51 ZM 606.51 735.95 C606.68,735.46 606.13,734.86 605.21,734.57 C606.69,735.04 607.04,735.53 606.51,735.95 Z" fill="rgb(35,86,64)"/>
<path d="M 0.00 512.00 L 0.00 0.00 L 512.00 0.00 L 1024.00 0.00 L 1024.00 512.00 L 1024.00 1024.00 L 512.00 1024.00 L 0.00 1024.00 L 0.00 512.00 ZM 277.46 795.43 C278.87,792.07 279.02,792.00 284.80,792.00 L 290.70 792.00 L 292.30 796.09 C293.19,798.34 294.35,799.90 294.90,799.56 C295.51,799.19 294.90,796.34 293.32,792.22 C291.91,788.53 289.80,782.90 288.63,779.72 C285.41,770.99 283.70,771.96 278.41,785.50 C274.12,796.49 273.10,800.67 275.02,799.49 C275.57,799.15 276.68,797.32 277.46,795.43 ZM 313.09 794.25 C313.14,791.09 313.10,786.36 313.01,783.75 C312.92,780.99 313.29,779.00 313.90,779.00 C314.48,779.00 318.14,783.75 322.04,789.56 C325.94,795.37 329.66,799.95 330.31,799.73 C331.86,799.22 332.56,774.00 331.03,774.00 C330.39,774.00 330.00,777.96 330.00,784.50 C330.00,790.28 329.60,795.00 329.11,795.00 C328.62,795.00 325.20,790.28 321.52,784.50 C316.84,777.15 314.25,774.00 312.91,774.00 C311.13,774.00 311.00,774.86 311.00,787.00 C311.00,795.00 311.38,800.00 312.00,800.00 C312.55,800.00 313.04,797.41 313.09,794.25 ZM 352.78 786.67 C353.02,775.84 352.84,774.00 351.53,774.00 C350.23,774.00 350.00,776.01 350.00,787.08 C350.00,797.10 350.29,800.07 351.25,799.75 C352.14,799.46 352.58,795.71 352.78,786.67 ZM 373.21 787.99 C373.37,782.22 373.80,778.17 374.16,779.00 C374.52,779.83 376.33,784.78 378.18,790.00 C380.25,795.83 382.09,799.50 382.95,799.50 C383.83,799.50 385.44,795.95 387.38,789.75 C389.05,784.39 390.77,780.00 391.21,780.00 C391.64,780.00 392.00,784.54 392.00,790.08 C392.00,797.70 392.31,800.07 393.25,799.75 C394.14,799.46 394.58,795.71 394.78,786.67 L 395.06 774.00 L 392.61 774.00 C390.38,774.00 389.83,775.00 386.42,785.25 L 382.67 796.50 L 379.01 785.50 C375.97,776.37 374.97,774.45 373.17,774.18 C371.04,773.87 371.00,774.08 371.00,787.13 C371.00,803.06 372.78,803.75 373.21,787.99 ZM 413.63 795.96 L 415.25 791.91 L 421.29 792.21 C427.19,792.49 427.36,792.58 428.48,795.94 C429.12,797.83 430.17,799.56 430.82,799.77 C432.53,800.34 432.31,799.06 429.40,791.37 C427.98,787.59 425.92,782.14 424.83,779.25 C421.68,770.89 420.13,771.92 414.66,786.00 C412.10,792.61 410.00,798.46 410.00,799.00 C410.00,801.45 412.16,799.64 413.63,795.96 ZM 460.47 799.05 C460.80,798.52 458.77,797.98 455.78,797.80 L 450.50 797.50 L 450.22 785.75 C449.83,769.49 448.00,770.52 448.00,787.00 L 448.00 800.00 L 453.94 800.00 C457.21,800.00 460.15,799.57 460.47,799.05 ZM 512.82 798.25 C513.31,797.29 514.78,792.56 516.09,787.75 C517.39,782.94 518.78,779.00 519.16,779.00 C519.85,779.00 521.72,784.83 524.08,794.34 C525.16,798.68 527.21,801.12 528.61,799.73 C529.03,799.30 536.00,775.35 536.00,774.31 C536.00,774.14 535.37,774.00 534.61,774.00 C533.84,774.00 532.92,775.24 532.56,776.75 C530.27,786.31 527.69,795.00 527.14,795.00 C526.79,794.99 525.21,790.25 523.64,784.45 C519.95,770.88 518.79,770.92 514.74,784.75 C513.09,790.39 511.38,795.00 510.95,795.00 C510.52,795.00 509.21,790.84 508.05,785.75 C505.81,775.95 504.82,773.53 503.28,774.13 C502.75,774.33 503.88,780.16 505.82,787.25 C509.26,799.82 510.79,802.23 512.82,798.25 ZM 564.50 799.00 C564.88,798.38 563.01,798.00 559.56,798.00 L 554.00 798.00 L 554.00 793.00 L 554.00 788.00 L 557.94 788.00 C563.36,788.00 564.05,786.19 558.77,785.81 L 554.50 785.50 L 554.20 780.75 L 553.89 776.00 L 558.95 776.00 C561.73,776.00 564.00,775.55 564.00,775.00 C564.00,774.44 561.17,774.00 557.50,774.00 L 551.00 774.00 L 551.00 787.00 L 551.00 800.00 L 557.44 800.00 C560.98,800.00 564.16,799.55 564.50,799.00 ZM 594.00 799.00 C594.00,798.45 591.75,798.00 589.00,798.00 L 584.00 798.00 L 584.00 786.00 C584.00,776.00 583.75,774.00 582.50,774.00 C581.24,774.00 581.00,776.11 581.00,787.00 L 581.00 800.00 L 587.50 800.00 C591.17,800.00 594.00,799.56 594.00,799.00 ZM 640.00 789.50 C640.00,783.13 640.40,779.00 641.00,779.00 C641.56,779.00 645.04,783.61 648.75,789.25 C652.46,794.89 656.17,799.50 657.00,799.50 C658.24,799.50 658.55,797.29 658.78,786.75 C658.96,778.49 658.70,774.00 658.03,774.00 C657.39,774.00 657.00,777.96 657.00,784.50 C657.00,790.28 656.61,795.00 656.13,795.00 C655.66,795.00 652.17,790.28 648.38,784.52 C638.86,770.01 638.00,770.21 638.00,787.00 C638.00,795.00 638.38,800.00 639.00,800.00 C639.60,800.00 640.00,795.83 640.00,789.50 ZM 690.50 799.00 C690.88,798.38 689.01,798.00 685.56,798.00 L 680.00 798.00 L 680.00 793.00 L 680.00 788.00 L 683.94 788.00 C686.11,788.00 688.16,787.55 688.50,787.00 C688.88,786.39 687.34,786.00 684.56,786.00 L 680.00 786.00 L 680.00 781.00 L 680.00 776.00 L 685.00 776.00 C687.75,776.00 690.00,775.55 690.00,775.00 C690.00,774.44 687.17,774.00 683.50,774.00 L 677.00 774.00 L 677.00 787.00 L 677.00 800.00 L 683.44 800.00 C686.98,800.00 690.16,799.55 690.50,799.00 ZM 719.93 797.37 C722.42,794.19 722.60,790.74 720.35,788.87 C719.45,788.12 716.41,786.38 713.60,785.00 C708.36,782.43 706.91,780.02 709.04,777.45 C710.65,775.51 716.89,775.55 717.64,777.50 C717.95,778.33 718.84,779.00 719.61,779.00 C721.44,779.00 721.37,778.06 719.35,775.83 C717.00,773.24 709.66,773.34 707.00,776.00 C702.87,780.13 705.47,784.83 713.50,787.74 C717.69,789.26 718.55,790.00 718.82,792.34 C719.00,793.87 718.61,795.77 717.95,796.56 C716.18,798.69 710.63,798.36 708.50,796.00 C706.56,793.86 705.00,793.40 705.00,794.96 C705.00,797.36 709.51,800.00 713.62,800.00 C717.00,800.00 718.27,799.47 719.93,797.37 ZM 749.78 798.44 C751.43,797.28 752.00,795.88 752.00,792.97 C752.00,788.75 750.10,786.78 744.82,785.48 C741.24,784.60 738.77,781.69 739.17,778.83 C739.43,777.00 740.22,776.43 742.84,776.18 C744.94,775.98 746.87,776.48 748.04,777.53 C750.86,780.09 752.85,778.85 750.19,776.19 C746.00,772.00 736.00,774.21 736.00,779.33 C736.00,782.82 738.72,785.84 743.02,787.12 C748.52,788.77 750.63,791.30 749.41,794.78 C748.15,798.41 742.35,799.15 739.54,796.05 C737.37,793.65 736.00,793.41 736.00,795.44 C736.00,797.68 740.07,800.00 744.00,800.00 C745.96,800.00 748.56,799.30 749.78,798.44 ZM 843.00 709.83 C843.00,685.02 843.20,681.44 844.65,679.83 C845.57,678.82 847.37,678.00 848.65,678.00 C849.94,678.00 851.00,677.55 851.00,677.00 C851.00,676.40 846.81,676.00 840.44,676.00 C833.66,676.00 830.10,676.36 830.50,677.00 C830.84,677.55 832.18,678.00 833.49,678.00 C838.61,678.00 839.00,679.58 839.00,700.07 C839.00,711.33 838.62,719.00 838.05,719.00 C837.53,719.00 829.41,709.55 820.00,698.00 L 802.90 677.00 L 796.20 677.04 C789.72,677.08 789.59,677.13 792.22,678.56 C793.72,679.37 795.41,680.90 795.97,681.95 C797.36,684.54 797.35,730.48 795.96,733.07 C795.31,734.30 793.87,735.00 792.02,735.00 C790.43,735.00 788.84,735.45 788.50,736.00 C788.10,736.64 791.66,737.00 798.44,737.00 C804.81,737.00 809.00,736.60 809.00,736.00 C809.00,735.45 807.90,735.00 806.56,735.00 C801.58,735.00 801.00,732.41 801.00,710.28 C801.00,698.99 801.40,690.00 801.90,690.00 C802.39,690.00 811.38,700.80 821.88,714.00 C832.37,727.20 841.42,738.00 841.98,738.00 C842.65,738.00 843.00,728.31 843.00,709.83 ZM 207.50 736.00 C207.16,735.45 205.81,735.00 204.50,735.00 C200.21,735.00 199.00,731.67 199.00,719.87 L 199.00 709.19 L 206.75 709.67 C213.49,710.09 215.08,709.85 218.94,707.83 C225.57,704.35 227.50,701.12 227.50,693.50 C227.50,685.87 225.55,682.61 218.98,679.25 C215.01,677.22 213.14,677.00 200.10,677.00 L 185.62 677.00 L 187.81 679.04 C189.95,681.03 190.00,681.65 190.00,706.10 C190.00,721.44 189.60,731.88 188.96,733.07 C188.31,734.30 186.87,735.00 185.02,735.00 C183.43,735.00 181.84,735.45 181.50,736.00 C181.10,736.65 185.68,737.00 194.50,737.00 C203.32,737.00 207.90,736.65 207.50,736.00 ZM 291.06 730.25 C292.29,726.54 293.50,722.94 293.75,722.25 C294.01,721.56 293.83,721.00 293.36,721.00 C292.88,721.00 291.42,723.03 290.11,725.51 C286.64,732.03 282.66,734.12 272.43,734.76 C260.13,735.52 260.00,735.35 260.00,718.35 L 260.00 705.00 L 267.75 705.01 C276.95,705.03 280.16,706.38 281.46,710.76 C283.13,716.42 284.00,714.28 284.00,704.50 C284.00,694.66 283.25,692.85 281.31,697.99 C279.85,701.85 276.67,703.00 267.43,703.00 L 260.00 703.00 L 260.00 691.00 L 260.00 679.00 L 269.55 679.00 C280.46,679.00 284.08,680.31 286.15,684.98 C288.13,689.44 289.00,688.68 289.00,682.50 L 289.00 677.00 L 267.55 677.00 L 246.09 677.00 L 248.55 679.45 L 251.00 681.91 L 251.00 706.50 L 251.00 731.09 L 248.50 733.59 C247.12,734.97 246.00,736.30 246.00,736.55 C246.00,736.80 255.64,737.00 267.42,737.00 L 288.84 737.00 L 291.06 730.25 ZM 338.00 736.00 C338.00,735.45 337.02,735.00 335.83,735.00 C334.63,735.00 332.83,734.26 331.83,733.35 C330.15,731.82 330.00,729.60 330.00,705.35 L 330.00 679.00 L 335.25 679.00 C341.89,679.01 346.36,681.59 348.11,686.43 C348.82,688.39 349.65,690.00 349.95,690.00 C350.25,690.00 350.35,687.08 350.16,683.50 L 349.83 677.00 L 325.55 677.00 L 301.26 677.00 L 300.64 680.75 C299.73,686.30 299.87,690.00 301.00,690.00 C301.55,690.00 302.00,689.11 302.00,688.02 C302.00,686.92 303.29,684.59 304.87,682.82 C307.44,679.94 308.42,679.57 314.37,679.19 L 321.00 678.77 L 321.00 704.66 C321.00,732.79 320.60,735.00 315.50,735.00 C314.19,735.00 312.84,735.45 312.50,736.00 C312.10,736.65 316.49,737.00 324.94,737.00 C332.98,737.00 338.00,736.62 338.00,736.00 ZM 457.50 736.00 C457.16,735.45 455.81,735.00 454.50,735.00 C449.40,735.00 449.00,732.79 449.00,704.66 L 449.00 678.77 L 455.63 679.19 C461.58,679.57 462.56,679.94 465.13,682.82 C466.71,684.59 468.00,686.92 468.00,688.02 C468.00,689.11 468.45,690.00 469.00,690.00 C470.13,690.00 470.27,686.30 469.36,680.75 L 468.74 677.00 L 444.37 677.00 L 420.00 677.00 L 420.04 683.25 L 420.09 689.50 L 422.06 685.77 C424.54,681.08 428.49,679.00 434.95,679.00 L 440.00 679.00 L 440.00 705.07 C440.00,721.12 439.60,731.87 438.96,733.07 C438.31,734.30 436.87,735.00 435.02,735.00 C433.43,735.00 431.84,735.45 431.50,736.00 C431.10,736.65 435.68,737.00 444.50,737.00 C453.32,737.00 457.90,736.65 457.50,736.00 ZM 534.19 729.00 C537.24,720.48 537.34,720.00 536.10,720.00 C535.60,720.00 534.75,721.28 534.20,722.84 C531.33,731.08 524.19,735.00 512.06,735.00 C502.50,735.00 501.87,733.94 502.22,718.22 L 502.50 705.50 L 509.68 705.21 C518.97,704.83 523.24,706.51 524.72,711.12 C525.65,714.04 525.80,713.13 525.86,704.50 C525.92,695.30 525.81,694.75 524.58,697.58 C522.76,701.77 518.86,703.15 509.93,702.80 L 502.50 702.50 L 502.50 691.00 L 502.50 679.50 L 511.00 679.19 C515.67,679.01 521.08,679.34 523.02,679.91 C526.54,680.94 530.00,685.16 530.00,688.40 C530.00,689.28 530.45,690.00 531.00,690.00 C532.12,690.00 532.32,684.85 531.38,680.12 L 530.75 677.00 L 509.62 677.02 C488.59,677.04 488.51,677.05 491.00,678.97 L 493.50 680.89 L 493.50 706.53 C493.50,731.92 493.48,732.19 491.25,734.00 C490.01,735.00 489.00,736.09 489.00,736.43 C489.00,736.77 498.56,736.92 510.25,736.77 L 531.50 736.50 L 534.19 729.00 ZM 575.00 736.00 C575.00,735.45 574.02,735.00 572.83,735.00 C571.63,735.00 569.83,734.26 568.83,733.35 C567.25,731.92 567.00,730.05 567.00,719.85 L 567.00 708.00 L 570.32 708.00 C573.48,708.00 574.11,708.70 583.38,722.50 L 593.12 737.00 L 599.50 737.00 C605.76,737.00 608.80,735.71 605.21,734.57 C602.41,733.68 596.92,727.42 589.90,717.10 C585.96,711.31 583.96,707.53 584.70,707.28 C587.27,706.39 592.41,702.37 594.41,699.68 C596.92,696.29 597.19,689.00 594.98,684.50 C594.10,682.72 591.68,680.58 589.04,679.25 C584.97,677.20 583.17,677.00 568.83,677.00 L 553.09 677.00 L 555.55 679.45 L 558.00 681.91 L 558.00 706.23 C558.00,732.66 557.55,735.00 552.50,735.00 C551.19,735.00 549.84,735.45 549.50,736.00 C549.10,736.65 553.49,737.00 561.94,737.00 C569.98,737.00 575.00,736.62 575.00,736.00 ZM 640.50 736.00 C640.16,735.45 638.81,735.00 637.50,735.00 C633.15,735.00 632.00,731.70 632.00,719.28 L 632.00 708.00 L 635.44 708.00 C638.75,708.00 639.24,708.53 648.62,722.50 L 658.36 737.00 L 664.62 737.00 C668.07,737.00 671.16,736.55 671.50,736.00 C671.84,735.45 671.66,735.00 671.09,735.00 C668.82,735.00 662.75,728.35 656.07,718.53 C652.18,712.82 649.00,707.96 649.00,707.73 C649.00,707.49 650.83,706.48 653.06,705.47 C658.75,702.91 662.43,696.54 661.75,690.46 C661.09,684.59 658.74,681.24 653.67,678.94 C650.16,677.34 647.05,677.04 634.06,677.02 L 618.62 677.00 L 620.81 679.04 C622.95,681.03 623.00,681.65 623.00,706.10 C623.00,721.44 622.60,731.88 621.96,733.07 C621.31,734.30 619.87,735.00 618.02,735.00 C616.43,735.00 614.84,735.45 614.50,736.00 C614.10,736.65 618.68,737.00 627.50,737.00 C636.32,737.00 640.90,736.65 640.50,736.00 ZM 701.00 736.07 C701.00,735.55 699.81,734.99 698.35,734.82 C693.64,734.25 693.24,731.89 696.58,724.31 L 699.58 717.50 L 711.81 717.22 L 724.04 716.94 L 726.13 721.72 C730.44,731.60 730.27,735.00 725.45,735.00 C724.10,735.00 723.00,735.45 723.00,736.00 C723.00,736.61 727.67,737.00 735.00,737.00 C746.47,737.00 750.47,735.94 743.94,734.64 C740.41,733.93 739.38,731.91 724.41,696.26 C719.51,684.58 714.98,675.02 714.35,675.01 C713.71,675.01 712.74,676.24 712.19,677.75 C708.84,686.84 688.86,731.49 687.42,733.08 C686.47,734.14 684.86,735.00 683.85,735.00 C682.83,735.00 682.00,735.45 682.00,736.00 C682.00,736.60 685.83,737.00 691.50,737.00 C696.72,737.00 701.00,736.58 701.00,736.07 ZM 778.00 736.00 C778.00,735.45 777.02,735.00 775.83,735.00 C774.63,735.00 772.83,734.26 771.83,733.35 C770.15,731.83 770.00,729.65 770.00,707.07 C770.00,680.24 770.43,678.00 775.56,678.00 C776.90,678.00 778.00,677.55 778.00,677.00 C778.00,676.38 773.00,676.00 765.00,676.00 C757.00,676.00 752.00,676.38 752.00,677.00 C752.00,677.55 753.32,678.00 754.94,678.00 C760.63,678.00 761.00,679.75 761.00,706.50 C761.00,732.64 760.55,735.00 755.50,735.00 C754.19,735.00 752.84,735.45 752.50,736.00 C752.10,736.65 756.49,737.00 764.94,737.00 C772.98,737.00 778.00,736.62 778.00,736.00 ZM 363.72 641.03 C371.24,636.44 367.37,626.81 356.87,623.97 C353.51,623.06 352.96,622.34 349.74,614.74 C340.63,593.27 338.26,578.98 341.36,564.21 C342.33,559.57 343.31,557.49 345.09,556.29 C353.41,550.68 362.72,537.35 375.51,512.68 C380.31,503.44 385.37,494.53 386.75,492.88 C388.13,491.24 391.56,488.75 394.38,487.34 C401.75,483.66 405.00,480.31 405.00,476.39 C405.00,474.04 404.24,472.55 402.25,470.98 C398.77,468.25 394.97,468.75 386.08,473.13 C379.37,476.43 366.58,488.28 355.10,501.83 C350.65,507.09 349.51,507.94 348.42,506.83 C345.90,504.27 341.89,489.65 341.34,481.00 C340.82,473.00 340.96,472.17 343.71,467.00 C345.32,463.98 348.79,458.66 351.44,455.19 C359.38,444.75 361.56,436.68 358.46,429.25 C355.83,422.96 354.39,422.00 347.60,422.00 C342.21,422.00 340.90,421.58 336.07,418.25 C331.14,414.85 329.91,414.47 322.94,414.15 C316.76,413.87 314.30,414.21 310.49,415.90 C304.47,418.56 301.80,418.55 299.40,415.85 C295.85,411.83 288.78,408.00 284.93,408.00 C280.05,408.00 278.62,409.89 279.25,415.51 C279.80,420.42 279.15,420.87 275.00,418.50 C271.67,416.59 264.59,416.59 263.01,418.49 C260.59,421.41 265.59,436.79 273.10,449.50 C277.82,457.50 279.98,468.02 279.99,483.10 C280.00,495.42 278.90,496.79 262.41,505.00 C240.92,515.70 230.60,525.65 221.46,544.50 C216.06,555.64 213.24,565.78 212.14,578.06 C211.33,587.06 212.16,607.40 213.57,613.25 C214.16,615.69 213.85,616.17 210.85,617.42 C203.45,620.51 190.34,615.37 181.63,605.97 C170.46,593.90 165.54,579.57 165.52,559.00 C165.50,544.43 166.48,538.96 171.14,527.67 C176.88,513.73 190.13,497.96 201.50,491.51 C208.77,487.39 212.00,484.11 212.00,480.85 C212.00,476.21 208.60,474.00 201.45,474.00 C192.23,474.00 182.93,478.96 172.52,489.43 C163.86,498.15 159.83,504.25 154.27,517.11 C142.61,544.09 142.23,576.49 153.30,601.06 C156.83,608.89 166.82,621.66 173.68,627.12 C181.10,633.02 188.21,636.59 197.85,639.24 C205.08,641.24 208.38,641.37 258.30,641.76 C305.55,642.12 311.35,642.00 313.55,640.56 C318.28,637.46 316.16,630.11 309.31,625.88 C306.17,623.94 304.95,623.79 297.10,624.38 C292.30,624.75 288.07,624.74 287.70,624.37 C287.33,624.00 290.12,620.45 293.90,616.47 C301.53,608.43 304.40,602.46 305.56,592.14 C305.95,588.76 306.57,586.00 306.95,586.00 C309.04,586.00 316.12,597.20 324.00,613.00 C330.08,625.18 335.59,634.23 338.79,637.30 C344.63,642.89 357.50,644.82 363.72,641.03 ZM 549.32 640.13 C558.17,634.63 560.98,624.97 568.47,574.50 C570.05,563.81 570.98,557.68 572.96,544.75 C575.08,530.85 577.40,519.00 577.99,519.00 C578.34,519.00 582.81,523.16 587.93,528.25 C598.11,538.36 602.92,546.39 605.07,556.89 C607.12,566.89 610.04,574.76 613.90,580.69 C618.25,587.37 629.81,598.68 641.75,607.93 C646.77,611.82 650.00,615.04 650.00,616.16 C650.00,617.17 649.89,618.06 649.75,618.14 C649.61,618.21 641.84,618.55 632.47,618.89 C616.82,619.45 615.04,619.71 610.47,622.06 C604.68,625.04 601.04,630.49 601.02,636.23 C600.98,643.76 593.38,643.31 708.76,642.68 C818.40,642.09 819.06,642.06 834.00,637.02 C844.16,633.60 850.80,629.28 860.10,620.04 C873.09,607.14 878.99,595.76 882.96,575.96 C886.70,557.30 885.31,539.19 878.51,518.17 C872.18,498.58 863.03,483.22 850.19,470.59 C838.08,458.69 826.75,452.65 823.20,456.20 C821.11,458.29 821.83,459.76 829.03,468.11 C840.61,481.53 849.38,498.38 853.96,516.00 C857.10,528.08 857.84,548.55 855.55,560.00 C851.54,580.07 838.87,597.51 822.38,605.66 C815.78,608.92 813.43,609.55 806.79,609.86 C796.86,610.31 794.62,609.03 792.59,601.74 C791.79,598.86 790.63,589.97 790.02,582.00 C788.73,565.16 786.79,552.35 783.94,541.91 C774.05,505.57 757.11,471.93 732.64,440.00 C713.81,415.43 693.40,393.68 644.41,346.00 C618.08,320.36 610.80,311.15 585.98,272.00 C568.19,243.94 550.00,226.08 530.35,217.39 C511.62,209.11 482.08,206.01 455.00,209.49 C435.82,211.96 420.80,216.18 405.39,223.45 C389.67,230.86 390.53,231.83 418.25,238.00 C425.28,239.56 428.00,240.58 428.00,241.66 C428.00,242.49 426.62,247.06 424.93,251.83 C420.71,263.74 420.19,271.37 422.87,281.97 C426.86,297.74 425.48,304.84 414.03,327.30 C410.16,334.90 407.00,342.14 407.00,343.40 C407.00,347.48 410.51,349.46 425.89,354.05 C431.40,355.69 434.78,356.12 439.20,355.72 C449.01,354.83 454.38,351.40 471.05,335.42 C479.33,327.48 487.86,320.09 490.01,318.99 C492.18,317.89 495.90,317.00 498.37,317.00 C507.89,317.00 510.52,325.75 509.75,354.86 C509.41,367.54 508.54,376.86 506.64,388.00 C505.19,396.52 503.44,407.10 502.75,411.50 L 501.50 419.50 L 497.52 419.15 C490.84,418.55 467.70,412.47 443.50,404.95 C422.97,398.58 419.59,397.80 412.00,397.72 C401.32,397.60 396.29,399.67 387.98,407.60 C378.07,417.05 376.33,427.53 383.48,434.68 C386.42,437.62 387.41,438.00 392.15,437.98 C396.17,437.96 398.87,437.21 403.00,434.96 C413.65,429.17 415.11,428.72 421.51,429.32 C434.27,430.51 446.69,435.56 494.32,458.94 L 523.15 473.09 L 526.04 479.29 C529.73,487.18 533.52,506.28 535.07,524.84 C536.37,540.26 535.72,595.66 534.10,608.46 C533.05,616.68 530.26,620.00 524.39,620.00 C518.09,620.00 512.31,624.42 510.14,630.90 C508.45,635.94 508.72,637.82 511.56,640.65 L 514.12 643.21 L 529.81 642.85 C544.25,642.53 545.80,642.31 549.32,640.13 ZM 318.25 398.68 C320.16,395.10 320.47,392.99 320.43,384.00 C320.41,378.23 319.85,371.12 319.19,368.20 C317.61,361.16 317.70,345.73 319.36,339.49 C323.20,325.05 330.52,314.46 350.65,294.20 C368.20,276.53 367.62,275.62 348.16,290.29 C332.19,302.32 318.11,321.04 314.16,335.50 C313.56,337.70 312.79,340.55 312.44,341.84 L 311.81 344.17 L 309.41 341.91 C307.74,340.35 307.00,338.55 306.99,336.08 C306.97,327.13 298.82,317.09 288.08,312.77 C283.27,310.84 280.64,310.53 269.00,310.52 C258.49,310.50 254.34,310.90 250.28,312.32 C244.85,314.22 240.00,318.76 240.00,321.96 C240.00,322.96 241.88,327.52 244.17,332.10 C251.83,347.40 262.50,355.10 277.02,355.82 C282.07,356.07 285.69,355.72 288.02,354.75 C291.45,353.32 291.38,353.30 283.34,353.33 C276.17,353.36 274.41,352.98 268.74,350.19 C260.58,346.17 254.16,339.37 249.34,329.65 C244.95,320.77 245.24,320.01 253.77,317.71 C267.77,313.94 280.97,314.83 291.99,320.28 C297.02,322.77 299.24,324.61 301.75,328.36 C303.54,331.04 305.00,334.29 305.00,335.58 L 305.00 337.94 L 301.25 335.38 C291.24,328.53 280.59,324.96 270.54,325.06 C263.50,325.14 263.07,324.85 280.94,331.98 C291.65,336.25 303.16,343.41 308.65,349.22 C311.24,351.97 311.85,353.55 312.36,359.00 C312.69,362.58 313.91,369.10 315.07,373.50 C317.71,383.57 317.98,395.27 315.67,399.70 C314.75,401.46 314.00,403.17 314.00,403.51 C314.00,405.02 316.23,402.49 318.25,398.68 ZM 351.12 338.56 C382.87,331.83 400.60,300.73 398.71,255.11 C398.28,244.73 397.80,241.37 396.56,240.13 C395.44,239.01 394.54,238.83 393.56,239.52 C380.43,248.74 374.85,251.43 361.34,255.03 C343.64,259.75 327.00,268.59 319.41,277.31 C317.40,279.61 314.12,284.88 312.13,289.00 C308.60,296.29 308.50,296.83 308.50,308.00 C308.50,317.83 308.83,320.21 310.76,324.40 C313.34,330.00 314.82,330.21 312.50,324.65 C308.72,315.61 309.99,301.88 315.63,290.74 C321.36,279.43 337.04,268.42 355.21,262.94 C375.59,256.80 379.01,255.56 385.19,252.03 C388.87,249.93 392.14,248.47 392.44,248.78 C392.75,249.08 393.00,255.22 393.00,262.42 C392.99,298.31 381.61,322.16 359.18,333.27 C351.77,336.94 349.62,337.55 342.83,337.86 C338.53,338.05 335.26,338.61 335.57,339.11 C336.38,340.42 343.55,340.17 351.12,338.56 ZM 280.38 787.63 C280.71,786.32 281.82,783.28 282.85,780.88 L 284.73 776.50 L 286.43 780.50 C287.36,782.70 288.38,785.74 288.69,787.25 C289.24,789.94 289.15,790.00 284.52,790.00 C280.03,790.00 279.81,789.87 280.38,787.63 ZM 416.74 789.41 C416.08,788.75 420.08,776.99 420.95,777.02 C421.84,777.04 425.94,788.29 425.39,789.19 C424.81,790.12 417.64,790.30 416.74,789.41 ZM 200.75 705.92 C199.23,705.04 199.00,703.25 199.00,692.45 L 199.00 680.00 L 205.08 680.00 C210.42,680.00 211.50,680.34 214.00,682.84 C222.73,691.57 218.03,707.05 206.67,706.97 C204.38,706.95 201.71,706.48 200.75,705.92 ZM 567.75 705.43 C567.34,705.01 567.00,699.17 567.00,692.45 C567.00,680.63 567.07,680.21 569.25,679.63 C572.93,678.64 578.34,678.98 580.81,680.35 C589.02,684.91 589.06,698.58 580.88,703.41 C577.73,705.27 568.92,706.63 567.75,705.43 ZM 632.67 705.33 C632.30,704.97 632.00,699.17 632.00,692.45 C632.00,680.63 632.07,680.21 634.25,679.63 C644.34,676.93 652.00,682.27 652.00,692.00 C652.00,697.87 649.60,701.83 644.68,704.06 C640.56,705.93 633.96,706.63 632.67,705.33 ZM 702.00 712.52 C702.00,710.45 711.05,690.00 711.97,690.00 C713.01,690.00 722.02,712.16 721.39,713.18 C721.11,713.63 716.63,714.00 711.44,714.00 C703.77,714.00 702.00,713.72 702.00,712.52 Z" fill="rgb(254,254,254)"/>
</g>
</svg>